<svg id="Layer_1" data-name="Layer 1" xmlns="http://www.w3.org/2000/svg" viewBox="0 0 222.69 44.12"><defs><style>.cls-1{fill:#39434e;}.cls-2{fill:#2157cd;}</style></defs><title>logo</title><path class="cls-1" d="M32.47,126.3a.68.68,0,0,1,.18-.39.56.56,0,0,1,.43-.17h4.4a.59.59,0,0,1,.61.48l3.46,11.54L45,126.22a.65.65,0,0,1,.65-.48H50a.62.62,0,0,1,.41.16.6.6,0,0,1,.21.4q.44,4.48.91,8.88t.91,8.88v.06q0,.5-.56.5h-3.6a.53.53,0,0,1-.61-.56l-1.11-9.83-2.86,9.89a.72.72,0,0,1-.18.31.44.44,0,0,1-.31.18H39.9a.48.48,0,0,1-.32-.17.55.55,0,0,1-.18-.31l-2.86-9.87-1.11,9.8q0,.56-.62.56H31.2a.49.49,0,0,1-.55-.56Z" transform="translate(-30.66 -125.46)"/><path class="cls-1" d="M60,126.23a.37.37,0,0,1,.08-.17.95.95,0,0,1,.39-.29.6.6,0,0,1,.22,0h3.25a.54.54,0,0,1,.37.13,1.64,1.64,0,0,1,.23.24l.32.72L71.5,144a.37.37,0,0,1,0,.41.62.62,0,0,1-.48.16H67.33a.8.8,0,0,1-.45-.11.7.7,0,0,1-.25-.36l-.5-1.29-.48-1.29H58.9l-.49,1.29-.49,1.29a.64.64,0,0,1-.65.47H53.53a.62.62,0,0,1-.4-.13.3.3,0,0,1-.06-.38Zm2.31,5.44q-.24.65-.49,1.4t-.49,1.51q-.24.76-.49,1.51t-.49,1.39h3.9Z" transform="translate(-30.66 -125.46)"/><path class="cls-1" d="M72.79,126.32a.62.62,0,0,1,.14-.43.53.53,0,0,1,.42-.16h8.21a6.18,6.18,0,0,1,2.45.49,6.4,6.4,0,0,1,2,1.33,6.2,6.2,0,0,1,1.34,2,5.94,5.94,0,0,1,.49,2.4,5.69,5.69,0,0,1-.24,1.65,6.14,6.14,0,0,1-.65,1.46,6.23,6.23,0,0,1-1,1.23,6.56,6.56,0,0,1-1.26.95L88,143.36q.09.18.23.42a.88.88,0,0,1,.14.42.38.38,0,0,1-.13.31.56.56,0,0,1-.36.11H83.46a.64.64,0,0,1-.39-.13.57.57,0,0,1-.22-.34l-3.09-5.81H77.71v5.73q0,.55-.58.55H73.35a.6.6,0,0,1-.41-.13.52.52,0,0,1-.15-.41Zm10,5.64a2.2,2.2,0,0,0-.14-.76,2.49,2.49,0,0,0-.39-.7,2.32,2.32,0,0,0-.61-.53,2.09,2.09,0,0,0-.79-.28l-.67,0-.68,0H77.71v4.67h2.75l.39,0a2,2,0,0,0,.8-.26,2.09,2.09,0,0,0,.6-.52,2.3,2.3,0,0,0,.37-.7A2.54,2.54,0,0,0,82.74,132Z" transform="translate(-30.66 -125.46)"/><path class="cls-1" d="M89.38,126.32a.61.61,0,0,1,.15-.43.53.53,0,0,1,.41-.16h12.61a.56.56,0,0,1,.43.16.63.63,0,0,1,.15.44v3.14a.66.66,0,0,1-.15.41.53.53,0,0,1-.44.2H94.3v3.15h6.36a.67.67,0,0,1,.4.11.44.44,0,0,1,.16.38v2.75a.53.53,0,0,1-.14.34.5.5,0,0,1-.41.17H94.3v3.25h8.54a.51.51,0,0,1,.57.58V144a.31.31,0,0,1-.1.23q-.05.36-.52.36H89.93a.6.6,0,0,1-.41-.13.52.52,0,0,1-.15-.41Z" transform="translate(-30.66 -125.46)"/><path class="cls-1" d="M105.24,126.3a.57.57,0,0,1,.15-.39.52.52,0,0,1,.41-.17h3.75a.69.69,0,0,1,.4.15.48.48,0,0,1,.21.41v6.93l2.72-3.51,2.71-3.51a1.1,1.1,0,0,1,.36-.35.85.85,0,0,1,.44-.13h4.83q.3,0,.3.19a.53.53,0,0,1-.14.31l-6,7.89,6.62,10a.7.7,0,0,1,.14.34c0,.13-.09.19-.28.19h-4.81a.81.81,0,0,1-.43-.13,1.07,1.07,0,0,1-.35-.34q-.67-.92-1.23-1.75T114,140.72L112.94,139q-.53-.85-1.17-1.79l-1.61,1.86v5q0,.56-.61.56h-3.74a.5.5,0,0,1-.57-.56Z" transform="translate(-30.66 -125.46)"/><path class="cls-1" d="M130.11,126.3a.58.58,0,0,1,.15-.39.52.52,0,0,1,.41-.17h3.75a.68.68,0,0,1,.4.15.48.48,0,0,1,.21.41v6.93l2.72-3.51,2.71-3.51a1.1,1.1,0,0,1,.36-.35.84.84,0,0,1,.44-.13h4.83q.3,0,.3.19a.53.53,0,0,1-.14.31l-6,7.89,6.62,10a.71.71,0,0,1,.14.34c0,.13-.09.19-.28.19h-4.81a.81.81,0,0,1-.43-.13,1.07,1.07,0,0,1-.35-.34q-.67-.92-1.23-1.75t-1.07-1.67L137.81,139q-.53-.85-1.17-1.79L135,139.1v5q0,.56-.61.56h-3.74a.5.5,0,0,1-.57-.56Z" transform="translate(-30.66 -125.46)"/><path class="cls-1" d="M147.42,135.2a9.66,9.66,0,0,1,1.32-4.91,9.84,9.84,0,0,1,1.52-2,9.49,9.49,0,0,1,2-1.52,10,10,0,0,1,2.32-1,9.73,9.73,0,0,1,5.17,0,10,10,0,0,1,2.33,1,9.66,9.66,0,0,1,3.49,3.5,10.1,10.1,0,0,1,1,2.33,9.75,9.75,0,0,1,0,5.17,9.85,9.85,0,0,1-1,2.31,9.56,9.56,0,0,1-1.52,2,9.92,9.92,0,0,1-2,1.52,9.57,9.57,0,0,1-2.33,1,9.91,9.91,0,0,1-5.17,0,9.59,9.59,0,0,1-2.32-1,9.86,9.86,0,0,1-3.49-3.48,9.48,9.48,0,0,1-1-2.31A9.63,9.63,0,0,1,147.42,135.2Zm4.92,0a5.4,5.4,0,0,0,.36,2,4.86,4.86,0,0,0,1,1.6,4.65,4.65,0,0,0,1.52,1.07,4.7,4.7,0,0,0,1.93.39,4.75,4.75,0,0,0,1.94-.39,4.63,4.63,0,0,0,1.52-1.07,4.86,4.86,0,0,0,1-1.6,5.62,5.62,0,0,0,0-3.93,4.92,4.92,0,0,0-1-1.61,4.74,4.74,0,0,0-6.91,0,4.92,4.92,0,0,0-1,1.61A5.41,5.41,0,0,0,152.34,135.18Z" transform="translate(-30.66 -125.46)"/><path class="cls-1" d="M168.73,126.32a.62.62,0,0,1,.14-.43.53.53,0,0,1,.42-.16h8.21a6.18,6.18,0,0,1,2.45.49,6.4,6.4,0,0,1,2,1.33,6.2,6.2,0,0,1,1.34,2,5.94,5.94,0,0,1,.49,2.4,5.68,5.68,0,0,1-.24,1.65,6.13,6.13,0,0,1-.65,1.46,6.21,6.21,0,0,1-1,1.23,6.56,6.56,0,0,1-1.27.95l3.27,6.15q.09.18.23.42a.87.87,0,0,1,.14.42.38.38,0,0,1-.13.31.56.56,0,0,1-.36.11h-4.36a.64.64,0,0,1-.39-.13.58.58,0,0,1-.22-.34l-3.09-5.81h-2.06v5.73q0,.55-.58.55h-3.78a.6.6,0,0,1-.41-.13.52.52,0,0,1-.15-.41Zm10,5.64a2.2,2.2,0,0,0-.14-.76,2.48,2.48,0,0,0-.39-.7,2.32,2.32,0,0,0-.61-.53,2.09,2.09,0,0,0-.79-.28l-.67,0-.68,0h-1.75v4.67h2.75l.39,0a2,2,0,0,0,.8-.26,2.1,2.1,0,0,0,.6-.52,2.3,2.3,0,0,0,.37-.7A2.54,2.54,0,0,0,178.68,132Z" transform="translate(-30.66 -125.46)"/><path class="cls-1" d="M199.72,127.11a.79.79,0,0,1,.32.33.53.53,0,0,1,0,.48L197.85,131a.5.5,0,0,1-.3.25.56.56,0,0,1-.39-.11,4.86,4.86,0,0,0-1.37-.72,4.92,4.92,0,0,0-1.59-.25,4.6,4.6,0,0,0-3.43,1.47,5,5,0,0,0-1,1.6,5.55,5.55,0,0,0,0,3.91,4.93,4.93,0,0,0,1,1.59,4.63,4.63,0,0,0,3.43,1.47,4.93,4.93,0,0,0,3-1,.59.59,0,0,1,.38-.11.52.52,0,0,1,.31.23l2.17,3.13a.5.5,0,0,1,0,.47.82.82,0,0,1-.32.32,10.09,10.09,0,0,1-2.57,1.24,9.53,9.53,0,0,1-2.9.44,9.66,9.66,0,0,1-6.87-2.84,9.86,9.86,0,0,1-1.52-2,9.48,9.48,0,0,1-1-2.31,9.76,9.76,0,0,1,1-7.5,9.86,9.86,0,0,1,1.52-2,9.48,9.48,0,0,1,2-1.52,10,10,0,0,1,2.32-1,9.85,9.85,0,0,1,5.47.08A9.89,9.89,0,0,1,199.72,127.11Z" transform="translate(-30.66 -125.46)"/><path class="cls-1" d="M202,126.3a.64.64,0,0,1,.16-.39.48.48,0,0,1,.39-.17h3.78a.65.65,0,0,1,.39.16.49.49,0,0,1,.2.4v6h6.32v-6a.55.55,0,0,1,.16-.39.54.54,0,0,1,.41-.17h3.72a.78.78,0,0,1,.44.13.45.45,0,0,1,.19.41v17.79a.52.52,0,0,1-.16.42.64.64,0,0,1-.43.14h-3.75a.6.6,0,0,1-.41-.14.53.53,0,0,1-.16-.42v-7.22h-6.32v7.22a.51.51,0,0,1-.17.41.69.69,0,0,1-.46.15h-3.74q-.53,0-.55-.5Z" transform="translate(-30.66 -125.46)"/><path class="cls-1" d="M225.91,137.09a4.33,4.33,0,0,0,.26,1.6,3,3,0,0,0,.69,1.07,2.6,2.6,0,0,0,1,.6,3.66,3.66,0,0,0,1.18.19,3.26,3.26,0,0,0,1.2-.22,2.8,2.8,0,0,0,1-.66,3.17,3.17,0,0,0,.68-1.09,4.15,4.15,0,0,0,.25-1.49V126.3a.55.55,0,0,1,.16-.39.56.56,0,0,1,.43-.17h3.71a.61.61,0,0,1,.46.17.55.55,0,0,1,.17.39V137a9.42,9.42,0,0,1-.65,3.74,6.42,6.42,0,0,1-1.76,2.43,6.74,6.74,0,0,1-2.56,1.32,11.48,11.48,0,0,1-3.06.4,11.22,11.22,0,0,1-3.06-.41,6.78,6.78,0,0,1-2.57-1.35,6.54,6.54,0,0,1-1.76-2.44A9.25,9.25,0,0,1,221,137V126.3a.58.58,0,0,1,.15-.39.46.46,0,0,1,.36-.17h3.8a.67.67,0,0,1,.4.16.48.48,0,0,1,.21.4Z" transform="translate(-30.66 -125.46)"/><path class="cls-1" d="M238.46,126.3a.52.52,0,0,1,.17-.41.62.62,0,0,1,.43-.15h13.68a.64.64,0,0,1,.41.14.57.57,0,0,1,.2.42v3.16a.71.71,0,0,1-.16.44.53.53,0,0,1-.45.21h-4.39V144a.6.6,0,0,1-.16.41.55.55,0,0,1-.43.19H244a.6.6,0,0,1-.41-.17.55.55,0,0,1-.19-.43V130.1h-4.37a.59.59,0,0,1-.43-.16.64.64,0,0,1-.17-.48Z" transform="translate(-30.66 -125.46)"/><path class="cls-2" d="M84.12,155.34l-.69.71a4.37,4.37,0,0,0-2.92-1c-2.06,0-4.23,1.58-4.23,5.72s1.62,5.82,4.2,5.82a5.38,5.38,0,0,0,2.75-.69v-4.63H80.67l-.13-1h3.81v6.18a7.66,7.66,0,0,1-3.93,1.07c-3.18,0-5.34-2.27-5.34-6.79S77.77,154,80.5,154A5.24,5.24,0,0,1,84.12,155.34Z" transform="translate(-30.66 -125.46)"/><path class="cls-2" d="M101.86,155.2H96.5v4.86h4.63v1H96.5v5.34h5.63v1H95.35V154.25H102Z" transform="translate(-30.66 -125.46)"/><path class="cls-2" d="M122.55,160.79c0,4.29-2.1,6.73-5.34,6.73s-5.32-2.37-5.32-6.71,2.19-6.77,5.32-6.77S122.55,156.39,122.55,160.79Zm-9.46,0c0,3.91,1.7,5.74,4.12,5.74s4.14-1.83,4.14-5.76-1.62-5.78-4.14-5.78S113.09,156.84,113.09,160.81Z" transform="translate(-30.66 -125.46)"/><path class="cls-2" d="M142.23,160.68c0,5.42-3.18,6.64-5.87,6.64h-2.8V154.25h2.59C139.18,154.25,142.23,155.3,142.23,160.68Zm-7.53-5.47v11.16h1.74c2.25,0,4.6-1,4.6-5.68s-2.44-5.47-4.73-5.47Z" transform="translate(-30.66 -125.46)"/><path class="cls-2" d="M159.73,155.2h-5.36v4.86H159v1h-4.63v5.34H160v1h-6.77V154.25h6.64Z" transform="translate(-30.66 -125.46)"/><path class="cls-2" d="M177.43,155.18l-6.94,11.12h6.83l-.15,1h-8v-1l7-11.12h-6.27v-1h7.53Z" transform="translate(-30.66 -125.46)"/><path class="cls-2" d="M189.5,165.56c0,2.33-.84,3.2-3,4l-.31-.84c1.74-.76,2.14-1.47,2.14-3.24V154.25h1.14Z" transform="translate(-30.66 -125.46)"/><path class="cls-2" d="M207.25,163.75h-5.49l-1.14,3.57h-1.16l4.37-13.06h1.43l4.35,13.06h-1.2Zm-.31-1-2.42-7.59-2.46,7.59Z" transform="translate(-30.66 -125.46)"/></svg>