<?xml version="1.0" encoding="utf-8"?>
<!-- Generator: Adobe Illustrator 17.0.0, SVG Export Plug-In . SVG Version: 6.00 Build 0)  -->
<!DOCTYPE svg PUBLIC "-//W3C//DTD SVG 1.1//EN" "http://www.w3.org/Graphics/SVG/1.1/DTD/svg11.dtd">
<svg version="1.1" id="Calque_1" xmlns="http://www.w3.org/2000/svg" xmlns:xlink="http://www.w3.org/1999/xlink" x="0px" y="0px"
	 width="73.422px" height="48.944px" viewBox="0 0 73.422 48.944" enable-background="new 0 0 73.422 48.944" xml:space="preserve">
<g>
	<path fill="#2157CD" d="M73.422,16.68l-9.208-9.208L64.21,7.476l-1.183-1.183L43.722,25.6c-0.177,0.176-0.313,0.389-0.401,0.622
		l-4.637,12.361c-0.237,0.632-0.09,1.343,0.378,1.829c0.336,0.348,0.793,0.535,1.261,0.535c0.185,0,0.372-0.029,0.553-0.09
		l12.251-4.083c0.259-0.086,0.494-0.231,0.687-0.424L72.34,17.773l-0.006-0.006L73.422,16.68z M44.019,34.325l2.066-5.509
		l4.962,4.963l-5.669,1.889L44.019,34.325z M48.243,26.026l14.788-14.788l5.448,5.449L53.712,31.494L48.243,26.026z"/>
	<path fill="#39434E" d="M54.524,39.589v5.856H26.092v-6.875h-3.5v6.875H3.5V26.017h19.092v5.38h3.5V17.138h-3.5v5.379H3.5V3.5
		h19.092v6.705h3.5V3.5h14.222V0H0v48.944h58.024v-12.26l-1.774,1.774C55.762,38.948,55.167,39.329,54.524,39.589z"/>
	<polygon fill="#39434E" points="54.524,10.11 58.024,6.611 58.024,0 49.313,0 49.313,3.5 54.524,3.5 	"/>
	<polygon fill="#39434E" points="34.72,15.635 48.999,15.635 52.5,12.135 34.72,12.135 	"/>
</g>
</svg>
