<?xml version="1.0" encoding="utf-8"?>
<!-- Generator: Adobe Illustrator 17.0.0, SVG Export Plug-In . SVG Version: 6.00 Build 0)  -->
<!DOCTYPE svg PUBLIC "-//W3C//DTD SVG 1.1//EN" "http://www.w3.org/Graphics/SVG/1.1/DTD/svg11.dtd">
<svg version="1.1" id="Calque_1" xmlns="http://www.w3.org/2000/svg" xmlns:xlink="http://www.w3.org/1999/xlink" x="0px" y="0px"
	 width="71.158px" height="51.639px" viewBox="0 0 71.158 51.639" enable-background="new 0 0 71.158 51.639" xml:space="preserve">
<g>
	<path fill="#39434E" d="M70.555,24.24L43.236,0.537c-0.66-0.572-1.64-0.571-2.297,0.003L30.714,9.459V5.992
		c0-0.967-0.784-1.75-1.75-1.75h-6.344c-0.966,0-1.75,0.783-1.75,1.75v12.053l-7.093,6.188c-0.728,0.636-0.804,1.741-0.168,2.47
		c0.636,0.729,1.742,0.804,2.469,0.168l8.287-7.229l0.005-11.899h2.844l-0.002,9.416l14.879-12.98l26.169,22.706
		c0.332,0.288,0.74,0.428,1.146,0.428c0.49,0,0.977-0.204,1.323-0.603C71.363,25.979,71.285,24.873,70.555,24.24z"/>
	<path fill="#2157CD" d="M1.5,3h12.542c0.829,0,1.5-0.671,1.5-1.5c0-0.828-0.671-1.5-1.5-1.5H1.5C0.671,0,0,0.672,0,1.5
		C0,2.329,0.671,3,1.5,3z"/>
	<path fill="#2157CD" d="M14.042,48.309H1.5c-0.829,0-1.5,0.671-1.5,1.5c0,0.828,0.671,1.5,1.5,1.5h12.542
		c0.829,0,1.5-0.672,1.5-1.5C15.542,48.979,14.87,48.309,14.042,48.309z"/>
	<path fill="#2157CD" d="M12.387,14.957c0.293,0.292,0.677,0.439,1.061,0.439c0.384,0,0.767-0.147,1.061-0.439
		c0.586-0.586,0.586-1.536,0-2.121l-5.87-5.87C8.598,6.925,8.544,6.91,8.5,6.874c-0.061-0.048-0.127-0.091-0.196-0.13
		c-0.121-0.068-0.242-0.116-0.373-0.15C7.894,6.586,7.856,6.579,7.817,6.573C7.723,6.558,7.632,6.532,7.538,6.534
		C7.14,6.523,6.74,6.662,6.437,6.966l-5.87,5.87c-0.586,0.585-0.586,1.535,0,2.121c0.293,0.292,0.677,0.439,1.061,0.439
		s0.768-0.147,1.061-0.439l3.389-3.39v28.654l-3.389-3.39c-0.586-0.586-1.535-0.586-2.121,0c-0.586,0.586-0.586,1.536,0,2.121
		l5.87,5.87c0.293,0.293,0.677,0.439,1.061,0.439c0.014,0,0.026-0.008,0.04-0.008s0.026,0.008,0.04,0.008
		c0.284,0,0.556-0.108,0.804-0.268c0.021-0.014,0.042-0.027,0.062-0.041c0.064-0.047,0.138-0.072,0.195-0.13l5.87-5.87
		c0.586-0.585,0.586-1.535,0-2.121c-0.586-0.586-1.535-0.586-2.121,0l-3.309,3.31V11.648L12.387,14.957z"/>
	<path fill="#39434E" d="M43.283,8.981c-0.666-0.592-1.668-0.591-2.331,0.004L21.529,26.379c-0.371,0.332-0.582,0.807-0.582,1.304
		v22.206c0,0.967,0.784,1.75,1.75,1.75h16.145l0.002-12.634h6.652v12.634h16.143c0.966,0,1.75-0.783,1.75-1.75V27.659
		c0-0.499-0.213-0.976-0.586-1.308L43.283,8.981z M59.888,48.139H48.995V37.255c0-0.966-0.784-1.749-1.75-1.749H37.093
		c-0.966,0-1.75,0.783-1.75,1.749v10.884H24.446V28.465l17.677-15.831l17.765,15.811V48.139z"/>
</g>
</svg>
