<?xml version="1.0" encoding="utf-8"?>
<!-- Generator: Adobe Illustrator 17.0.0, SVG Export Plug-In . SVG Version: 6.00 Build 0)  -->
<!DOCTYPE svg PUBLIC "-//W3C//DTD SVG 1.1//EN" "http://www.w3.org/Graphics/SVG/1.1/DTD/svg11.dtd">
<svg version="1.1" id="Calque_1" xmlns="http://www.w3.org/2000/svg" xmlns:xlink="http://www.w3.org/1999/xlink" x="0px" y="0px"
	 width="62.087px" height="71.443px" viewBox="0 0 62.087 71.443" enable-background="new 0 0 62.087 71.443" xml:space="preserve">
<g>
	<polygon fill="#39434E" points="8.974,26.156 14.538,45.416 0,49.607 0.97,52.971 15.51,48.778 22.058,71.443 25.421,70.472 
		12.336,25.184 	"/>
	<path fill="#39434E" d="M62.087,47.696l-0.969-3.363l-33.253,9.582l-3.658-12.733l11.265-3.338c-0.547-1-1.113-2.056-1.685-3.15
		l-13.9,4.122l8.785,30.58l3.363-0.967l-3.203-11.149l22.267-6.416l2.071,7.277l3.367-0.958l-2.074-7.289L62.087,47.696z"/>
	<path fill="#39434E" d="M32.173,31.53c-0.524-1.055-1.039-2.125-1.536-3.195l-9.326,2.764l-2.275-7.922l-3.364,0.967l3.248,11.306
		L32.173,31.53z"/>
	<path fill="#2157CD" d="M43.267,43.937c0.617,0,1.189-0.326,1.505-0.856c1.304-2.196,12.74-21.662,12.74-28.836
		C57.512,6.39,51.121,0,43.267,0c-7.854,0-14.244,6.39-14.244,14.244c0,7.174,11.436,26.64,12.739,28.836
		C42.077,43.611,42.649,43.937,43.267,43.937z M43.267,3.5c5.925,0,10.745,4.82,10.745,10.744c0,4.606-6.77,17.467-10.745,24.455
		c-3.975-6.988-10.744-19.848-10.744-24.455C32.522,8.32,37.342,3.5,43.267,3.5z"/>
	<path fill="#2157CD" d="M50.352,14.244c0-3.907-3.179-7.086-7.086-7.086c-3.906,0-7.085,3.179-7.085,7.086
		c0,3.909,3.179,7.088,7.085,7.088C47.174,21.333,50.352,18.153,50.352,14.244z M39.682,14.244c0-1.977,1.608-3.586,3.585-3.586
		c1.978,0,3.586,1.609,3.586,3.586c0,1.979-1.608,3.588-3.586,3.588C41.29,17.833,39.682,16.223,39.682,14.244z"/>
</g>
</svg>
