<?xml version="1.0" encoding="utf-8"?>
<!-- Generator: Adobe Illustrator 17.0.0, SVG Export Plug-In . SVG Version: 6.00 Build 0)  -->
<!DOCTYPE svg PUBLIC "-//W3C//DTD SVG 1.1//EN" "http://www.w3.org/Graphics/SVG/1.1/DTD/svg11.dtd">
<svg version="1.1" id="Objects" xmlns="http://www.w3.org/2000/svg" xmlns:xlink="http://www.w3.org/1999/xlink" x="0px" y="0px"
	 width="107.795px" height="107.116px" viewBox="0 0 107.795 107.116" enable-background="new 0 0 107.795 107.116"
	 xml:space="preserve">
<path fill="#FFFFFF" d="M101.707,37.722l-9.999-8.527V13.432H73.225L59.984,2.141c-0.837-0.714-1.807-1.249-2.844-1.605
	c-0.519-0.179-1.053-0.313-1.597-0.401C55,0.044,54.449,0,53.897,0c-2.207,0-4.413,0.713-6.087,2.141L34.57,13.432H16.086v15.763
	l-9.999,8.527c0,0.001-0.002,0.002-0.002,0.002C2.738,40.58,0,46.514,0,50.913v48.203c0,2.823,1.485,5.31,3.709,6.735
	c1.243,0.796,2.713,1.265,4.291,1.265h2.788h86.219h2.788c1.577,0,3.047-0.469,4.29-1.265c2.224-1.425,3.71-3.912,3.71-6.735V50.913
	C107.795,46.513,105.056,40.577,101.707,37.722z M97.007,42.913l-5.298,4.518v-9.037L97.007,42.913z M52.352,7.467
	c0.085-0.072,0.185-0.137,0.298-0.194c0.225-0.114,0.5-0.198,0.794-0.24C53.591,7.011,53.744,7,53.897,7
	c0.153,0,0.306,0.011,0.453,0.032c0.441,0.063,0.838,0.219,1.092,0.435l6.994,5.965H45.358L52.352,7.467z M21.086,18.432h65.622
	v33.264l-21.951,18.72l-4.773-4.07c-1.674-1.428-3.88-2.142-6.087-2.142c-2.207,0-4.413,0.714-6.087,2.142l-4.773,4.07
	l-21.951-18.72V18.432z M16.086,38.395v9.037l-5.299-4.518L16.086,38.395z M8.208,100.116H8c-0.533,0-1-0.467-1-1V50.913
	c0-0.535,0.098-1.153,0.264-1.806l8.823,7.523l5,4.264l16.557,14.12l-16.557,14.12l-5,4.264L8.208,100.116z M18.996,100.116
	l4.563-3.892l5.863-5l13.614-11.61l5.394-4.6l3.921-3.344c0.338-0.288,0.93-0.468,1.545-0.468c0.615,0,1.207,0.18,1.545,0.468
	l3.921,3.344l5.394,4.6l13.614,11.61l5.863,5l4.563,3.892H18.996z M100.795,99.116c0,0.533-0.467,1-1,1h-0.209l-7.878-6.718
	l-5-4.264l-16.557-14.12l16.557-14.12l5-4.264l8.823-7.523c0.166,0.652,0.264,1.271,0.264,1.806V99.116z M76.063,32.892H31.73
	c-0.828,0-1.5-0.672-1.5-1.5c0-0.829,0.672-1.5,1.5-1.5h44.333c0.828,0,1.5,0.671,1.5,1.5C77.563,32.22,76.892,32.892,76.063,32.892
	z M76.063,41.03H31.73c-0.828,0-1.5-0.671-1.5-1.5c0-0.828,0.672-1.5,1.5-1.5h44.333c0.828,0,1.5,0.672,1.5,1.5
	C77.563,40.359,76.892,41.03,76.063,41.03z M76.063,49.169H31.73c-0.828,0-1.5-0.671-1.5-1.5c0-0.828,0.672-1.5,1.5-1.5h44.333
	c0.828,0,1.5,0.672,1.5,1.5C77.563,48.498,76.892,49.169,76.063,49.169z M76.063,57.309H31.73c-0.828,0-1.5-0.672-1.5-1.5
	c0-0.829,0.672-1.5,1.5-1.5h44.333c0.828,0,1.5,0.671,1.5,1.5C77.563,56.637,76.892,57.309,76.063,57.309z"/>
</svg>
